<svg version="1.1" id="Layer_1" xmlns="http://www.w3.org/2000/svg" xmlns:xlink="http://www.w3.org/1999/xlink" x="0px" y="0px"
	 width="100%" viewBox="0 0 313 270" enable-background="new 0 0 313 270" xml:space="preserve">
<path fill="#FFFFFF" opacity="1.000000" stroke="none" 
	d="
M214.000000,271.000000 
	C142.666672,271.000000 71.833351,271.000000 1.000019,271.000000 
	C1.000013,181.000015 1.000013,91.000038 1.000006,1.000043 
	C105.333305,1.000029 209.666611,1.000029 313.999939,1.000014 
	C313.999939,90.999962 313.999939,180.999924 313.999969,270.999939 
	C280.833344,271.000000 247.666672,271.000000 214.000000,271.000000 
M160.514923,246.158081 
	C220.577484,246.011200 267.920898,199.427032 268.276581,140.124588 
	C268.630219,81.156487 221.796890,33.442528 162.855469,32.721191 
	C104.171669,32.003010 56.020626,78.503349 54.845345,137.028534 
	C53.651150,196.495392 99.655426,244.452606 160.514923,246.158081 
z"/>
<path fill="#1B77D1" opacity="1.000000" stroke="none" 
	d="
M160.022461,246.157623 
	C99.655426,244.452606 53.651150,196.495392 54.845345,137.028534 
	C56.020626,78.503349 104.171669,32.003010 162.855469,32.721191 
	C221.796890,33.442528 268.630219,81.156487 268.276581,140.124588 
	C267.920898,199.427032 220.577484,246.011200 160.022461,246.157623 
M196.402298,99.880714 
	C179.547287,119.932541 162.692261,139.984360 145.720291,160.175323 
	C135.048264,151.255341 124.888695,142.763672 114.510246,134.089081 
	C111.169136,138.178223 108.183739,141.832001 105.113052,145.590179 
	C119.447243,157.762070 133.331497,169.551895 147.429886,181.523560 
	C170.033936,154.573334 192.316071,128.006897 214.816818,101.179825 
	C210.752182,97.773956 207.210724,94.806496 203.369995,91.588257 
	C201.102844,94.278618 198.976532,96.801834 196.402298,99.880714 
z"/>
<path fill="#FBFDFE" opacity="1.000000" stroke="none" 
	d="
M196.626266,99.602882 
	C198.976532,96.801834 201.102844,94.278618 203.369995,91.588257 
	C207.210724,94.806496 210.752182,97.773956 214.816818,101.179825 
	C192.316071,128.006897 170.033936,154.573334 147.429886,181.523560 
	C133.331497,169.551895 119.447243,157.762070 105.113052,145.590179 
	C108.183739,141.832001 111.169136,138.178223 114.510246,134.089081 
	C124.888695,142.763672 135.048264,151.255341 145.720291,160.175323 
	C162.692261,139.984360 179.547287,119.932541 196.626266,99.602882 
z"/>
</svg>